<?xml version="1.0" encoding="UTF-8" standalone="no"?>
<!-- Uploaded to: SVG Repo, www.svgrepo.com, Generator: SVG Repo Mixer Tools -->

<svg
   version="1.1"
   id="Layer_1"
   viewBox="0 0 504.123 504.123"
   xml:space="preserve"
   sodipodi:docname="AnalyticsBox.svg"
   inkscape:version="1.1.2 (0a00cf5339, 2022-02-04)"
   xmlns:inkscape="http://www.inkscape.org/namespaces/inkscape"
   xmlns:sodipodi="http://sodipodi.sourceforge.net/DTD/sodipodi-0.dtd"
   xmlns="http://www.w3.org/2000/svg"
   xmlns:svg="http://www.w3.org/2000/svg"><defs
   id="defs93" /><sodipodi:namedview
   id="namedview91"
   pagecolor="#ffffff"
   bordercolor="#666666"
   borderopacity="1.0"
   inkscape:pageshadow="2"
   inkscape:pageopacity="0.0"
   inkscape:pagecheckerboard="0"
   showgrid="false"
   inkscape:zoom="1.1048891"
   inkscape:cx="245.27348"
   inkscape:cy="252.06149"
   inkscape:window-width="1366"
   inkscape:window-height="699"
   inkscape:window-x="0"
   inkscape:window-y="37"
   inkscape:window-maximized="1"
   inkscape:current-layer="Layer_1" />
<circle
   style="fill:#a02c2c"
   cx="252.062"
   cy="252.062"
   r="252.062"
   id="circle2"
   inkscape:export-filename="/home/r_xn/Desktop/Ledgr/pages/appdata/imgs/AnalyticsBox.png.png"
   inkscape:export-xdpi="96"
   inkscape:export-ydpi="96" />
<g
   id="g8">
	<rect
   x="130.363"
   y="140.603"
   style="fill:#FFFFFF;"
   width="12.209"
   height="6.302"
   id="rect4" />
	<rect
   x="130.363"
   y="156.751"
   style="fill:#FFFFFF;"
   width="12.209"
   height="6.302"
   id="rect6" />
</g>
<rect
   x="130.363"
   y="173.292"
   style="fill:#F9B54C;"
   width="17.329"
   height="6.302"
   id="rect10" />
<g
   id="g16">
	<rect
   x="130.363"
   y="189.44"
   style="fill:#FFFFFF;"
   width="12.209"
   height="6.302"
   id="rect12" />
	<rect
   x="130.363"
   y="205.588"
   style="fill:#FFFFFF;"
   width="12.209"
   height="6.302"
   id="rect14" />
</g>
<rect
   x="130.363"
   y="222.129"
   style="fill:#F9B54C;"
   width="17.329"
   height="6.302"
   id="rect18" />
<g
   id="g24">
	<rect
   x="130.363"
   y="238.277"
   style="fill:#FFFFFF;"
   width="12.209"
   height="6.302"
   id="rect20" />
	<rect
   x="130.363"
   y="254.818"
   style="fill:#FFFFFF;"
   width="12.209"
   height="6.302"
   id="rect22" />
</g>
<rect
   x="130.363"
   y="270.966"
   style="fill:#F9B54C;"
   width="17.329"
   height="6.302"
   id="rect26" />
<g
   id="g32">
	<rect
   x="130.363"
   y="287.114"
   style="fill:#FFFFFF;"
   width="12.209"
   height="6.302"
   id="rect28" />
	<rect
   x="130.363"
   y="303.655"
   style="fill:#FFFFFF;"
   width="12.209"
   height="6.302"
   id="rect30" />
</g>
<rect
   x="130.363"
   y="319.803"
   style="fill:#F9B54C;"
   width="17.329"
   height="6.302"
   id="rect34" />
<g
   id="g44">
	<rect
   x="130.363"
   y="335.951"
   style="fill:#FFFFFF;"
   width="12.209"
   height="6.302"
   id="rect36" />
	<rect
   x="130.363"
   y="352.492"
   style="fill:#FFFFFF;"
   width="12.209"
   height="6.302"
   id="rect38" />
	<rect
   x="152.418"
   y="367.852"
   style="fill:#FFFFFF;"
   width="5.908"
   height="12.603"
   id="rect40" />
	<rect
   x="168.172"
   y="367.852"
   style="fill:#FFFFFF;"
   width="5.908"
   height="12.603"
   id="rect42" />
</g>
<rect
   x="183.926"
   y="362.338"
   style="fill:#F9B54C;"
   width="5.908"
   height="18.117"
   id="rect46" />
<g
   id="g52">
	<rect
   x="199.68"
   y="367.852"
   style="fill:#FFFFFF;"
   width="5.908"
   height="12.603"
   id="rect48" />
	<rect
   x="215.434"
   y="367.852"
   style="fill:#FFFFFF;"
   width="5.908"
   height="12.603"
   id="rect50" />
</g>
<rect
   x="231.188"
   y="362.338"
   style="fill:#F9B54C;"
   width="5.908"
   height="18.117"
   id="rect54" />
<g
   id="g60">
	<rect
   x="246.942"
   y="367.852"
   style="fill:#FFFFFF;"
   width="5.908"
   height="12.603"
   id="rect56" />
	<rect
   x="262.695"
   y="367.852"
   style="fill:#FFFFFF;"
   width="5.908"
   height="12.603"
   id="rect58" />
</g>
<rect
   x="278.449"
   y="362.338"
   style="fill:#F9B54C;"
   width="5.908"
   height="18.117"
   id="rect62" />
<g
   id="g68">
	<rect
   x="294.203"
   y="367.852"
   style="fill:#FFFFFF;"
   width="5.908"
   height="12.603"
   id="rect64" />
	<rect
   x="309.957"
   y="367.852"
   style="fill:#FFFFFF;"
   width="5.908"
   height="12.603"
   id="rect66" />
</g>
<rect
   x="325.711"
   y="362.338"
   style="fill:#F9B54C;"
   width="5.908"
   height="18.117"
   id="rect70" />
<g
   id="g76">
	<rect
   x="341.071"
   y="367.852"
   style="fill:#FFFFFF;"
   width="5.908"
   height="12.603"
   id="rect72" />
	<rect
   x="356.825"
   y="367.852"
   style="fill:#FFFFFF;"
   width="5.908"
   height="12.603"
   id="rect74" />
</g>
<polygon
   style="fill:#4CDBC4;"
   points="375.729,393.452 116.578,393.452 116.578,133.908 134.695,133.908 134.695,374.548   375.729,374.548 "
   id="polygon78" />
<polygon
   style="fill:#FFFFFF;"
   points="358.006,190.622 353.674,139.815 308.775,161.477 313.502,171.717 335.163,161.083   299.323,226.068 240.64,239.458 224.886,288.689 177.625,288.689 151.631,344.615 161.871,349.342 184.32,300.111 231.188,300.111   248.123,249.305 306.806,235.914 345.009,166.991 346.978,191.803 "
   id="polygon80" />
<path
   style="fill:#FF7058;"
   d="M183.926,275.692c-9.452,0-16.935,7.877-16.935,17.329s7.483,17.329,16.935,17.329  c9.452,0,16.935-7.877,16.935-17.329S193.378,275.692,183.926,275.692z"
   id="path82" />
<path
   style="fill:#ACB3BA;"
   d="M229.612,275.692c-9.452,0-16.935,7.877-16.935,17.329s7.483,17.329,16.935,17.329  c9.452,0,16.935-7.877,16.935-17.329S239.065,275.692,229.612,275.692z"
   id="path84" />
<path
   style="fill:#84DBFF;"
   d="M246.548,226.855c-9.452,0-16.935,7.877-16.935,17.329c0,9.846,7.483,17.329,16.935,17.329  c9.452,0,16.935-7.877,16.935-17.329S256,226.855,246.548,226.855z"
   id="path86" />
<path
   style="fill:#F9B54C;"
   d="M303.262,211.889c-9.452,0-16.935,7.877-16.935,17.329s7.483,17.329,16.935,17.329  c9.452,0,16.935-7.877,16.935-17.329S312.32,211.889,303.262,211.889z"
   id="path88" />
</svg>
