<?xml version="1.0" encoding="UTF-8" standalone="no"?>
<!-- Uploaded to: SVG Repo, www.svgrepo.com, Generator: SVG Repo Mixer Tools -->

<svg
   version="1.1"
   id="Layer_1"
   viewBox="0 0 451.296 451.296"
   xml:space="preserve"
   sodipodi:docname="InvestmentLab.svg"
   inkscape:version="1.1.2 (0a00cf5339, 2022-02-04)"
   xmlns:inkscape="http://www.inkscape.org/namespaces/inkscape"
   xmlns:sodipodi="http://sodipodi.sourceforge.net/DTD/sodipodi-0.dtd"
   xmlns="http://www.w3.org/2000/svg"
   xmlns:svg="http://www.w3.org/2000/svg"><defs
   id="defs39" /><sodipodi:namedview
   id="namedview37"
   pagecolor="#ffffff"
   bordercolor="#666666"
   borderopacity="1.0"
   inkscape:pageshadow="2"
   inkscape:pageopacity="0.0"
   inkscape:pagecheckerboard="0"
   showgrid="false"
   inkscape:zoom="1.2342232"
   inkscape:cx="213.89972"
   inkscape:cy="225.648"
   inkscape:window-width="1366"
   inkscape:window-height="699"
   inkscape:window-x="0"
   inkscape:window-y="37"
   inkscape:window-maximized="1"
   inkscape:current-layer="Layer_1" />
<circle
   style="fill:#67536c"
   cx="225.648"
   cy="225.638"
   r="225.638"
   id="circle2" />
<path
   style="opacity:0.1;enable-background:new;fill:#0000ff"
   d="M308.859,186.263v46.824l-77.664-77.664h-28.959v18.617l-77.664-77.664  h-9.402v22.566H96.365v9.402l16.125,16.125h-8.838v9.402l11.518,11.518v4.56H96.365v9.402l16.078,16.078h-8.791v9.402l11.518,11.518  v4.607H96.365v9.402l16.078,16.078h-8.791v9.402l11.518,11.517v4.561H96.365v9.402l16.078,16.079h-8.791v9.402l11.518,11.517v4.607  H96.365v9.402l18.805,18.805v3.808l95.829,95.828c4.848,0.311,9.723,0.525,14.649,0.525c102.148,0,188.399-67.891,216.206-160.996  L337.818,186.263H308.859z"
   id="path4" />
<rect
   x="148.899"
   y="204.109"
   style="fill:#FCD462;"
   width="28.938"
   height="55.045"
   id="rect6" />
<rect
   x="202.249"
   y="155.443"
   style="fill:#44C4A1;"
   width="28.938"
   height="34.662"
   id="rect8" />
<rect
   x="255.543"
   y="228.454"
   style="fill:#E56353;"
   width="28.938"
   height="35.748"
   id="rect10" />
<rect
   x="308.848"
   y="186.266"
   style="fill:#27A2DB;"
   width="28.943"
   height="35.784"
   id="rect12" />
<polygon
   style="fill:#EBF0F3;"
   points="124.572,345.519 124.572,96.355 115.17,96.355 115.17,118.964 96.365,118.964   96.365,128.367 115.17,128.367 115.17,144.458 103.645,144.458 103.645,153.86 115.17,153.86 115.17,169.951 96.365,169.951   96.365,179.353 115.17,179.353 115.17,195.444 106.006,195.444 103.645,195.444 103.645,204.846 106.006,204.846 115.17,204.846   115.17,220.937 96.365,220.937 96.365,230.34 115.17,230.34 115.17,246.43 103.645,246.43 103.645,255.833 115.17,255.833   115.17,271.923 96.365,271.923 96.365,281.326 115.17,281.326 115.17,297.417 106.006,297.417 103.645,297.417 103.645,306.819   106.006,306.819 115.17,306.819 115.17,322.91 96.365,322.91 96.365,332.312 115.17,332.312 115.17,354.921 354.931,354.921   354.931,345.519 "
   id="polygon14" />
<polygon
   style="fill:#F6C358;"
   points="177.86,314.417 177.86,259.156 148.919,259.156 148.919,314.417 148.919,328.205   177.86,328.205 "
   id="polygon16" />
<polygon
   style="fill:#3EA69B;"
   points="231.172,314.417 231.172,190.107 202.231,190.107 202.231,314.417 202.231,328.205   231.172,328.205 "
   id="polygon18" />
<polygon
   style="fill:#D15241;"
   points="284.484,314.417 284.484,264.189 255.543,264.189 255.543,314.417 255.543,328.205   284.484,328.205 "
   id="polygon20" />
<polygon
   style="fill:#2D93BA;"
   points="337.796,314.417 337.796,222.051 308.855,222.051 308.855,314.417 308.855,328.205   337.796,328.205 "
   id="polygon22" />
<g
   id="g30">
	<polygon
   style="fill:#E56353;"
   points="322.55,345.443 322.57,345.478 323.174,344.874  "
   id="polygon24" />
	<polygon
   style="fill:#E56353;"
   points="321.888,344.874 322.492,345.478 322.511,345.443  "
   id="polygon26" />
	<polygon
   style="fill:#E56353;"
   points="322.531,345.462 322.531,345.462 322.531,345.462 322.502,345.488 322.531,345.517    322.56,345.488  "
   id="polygon28" />
</g>
<polygon
   style="fill:#3A556A;"
   points="322.531,345.517 322.531,345.517 322.591,345.517 322.56,345.488 "
   id="polygon32" />
<polygon
   style="fill:#2F4859;"
   points="322.531,345.462 322.511,345.443 322.492,345.478 322.502,345.488 "
   id="polygon34" />
</svg>
