<?xml version="1.0" encoding="iso-8859-1"?>
<!-- Uploaded to: SVG Repo, www.svgrepo.com, Generator: SVG Repo Mixer Tools -->
<svg height="800px" width="800px" version="1.1" id="Layer_1" xmlns="http://www.w3.org/2000/svg" xmlns:xlink="http://www.w3.org/1999/xlink" 
	 viewBox="0 0 451.277 451.277" xml:space="preserve">
<circle style="fill:#334D5C;" cx="225.638" cy="225.638" r="225.638"/>
<path style="opacity:0.1;enable-background:new    ;" d="M448.295,262.252L316.68,130.638l0,0.004
	c-21.106-21.177-50.302-34.286-82.563-34.286v7.484v26.426l-16.955-16.955c-2.12,0-4.225,0.064-6.317,0.176l-0.004,0h-0.002
	c-61.437,3.286-110.243,54.134-110.243,116.39c0,33.691,14.352,63.966,37.216,85.229l-0.02,0.021l131.849,131.848
	C361.41,428.833,433.145,355.064,448.295,262.252z"/>
<path style="fill:#FCD462;" d="M217.161,113.31c-64.378,0-116.567,52.189-116.567,116.567c0,48.147,29.194,89.468,70.843,107.248
	l45.724-107.248V113.31z"/>
<path style="fill:#F6C358;" d="M210.837,113.487v116.39L166.17,334.646c1.743,0.85,3.477,1.715,5.266,2.479l45.724-107.248V113.31
	C215.039,113.31,212.931,113.375,210.837,113.487z"/>
<path style="fill:#3EA69B;" d="M341.601,212.922h9.082c0-64.378-52.189-116.566-116.567-116.566v7.484
	C292.963,106.169,340.114,153.861,341.601,212.922z"/>
<path style="fill:#2D93BA;" d="M221.134,353.282c-14.535,0-28.409-2.798-41.153-7.834l-0.066,0.154
	c14.041,5.994,29.492,9.319,45.724,9.319c34.342,0,65.208-14.856,86.541-38.486l-4.484-4.046
	C287.142,337.359,255.999,353.282,221.134,353.282z"/>
<path style="fill:#D15241;" d="M337.362,225.638c0.024,0.955,0.072,1.904,0.072,2.865c0,27.026-9.569,51.815-25.501,71.169
	l4.485,4.046c18.658-20.667,30.025-48.045,30.025-78.081H337.362z"/>
<path style="fill:#44C4A1;" d="M341.601,212.922c-1.487-59.06-48.638-106.753-107.485-109.082v109.082H341.601z"/>
<path style="fill:#27A2DB;" d="M307.695,312.39l-82.057-74.035L179.98,345.448c12.744,5.036,26.618,7.834,41.153,7.834
	C255.999,353.282,287.142,337.359,307.695,312.39z"/>
<path style="fill:#E56353;" d="M311.934,299.673c15.932-19.354,25.501-44.143,25.501-71.169c0-0.961-0.048-1.911-0.072-2.865
	H229.877L311.934,299.673z"/>
</svg>