<?xml version="1.0" encoding="UTF-8" standalone="no"?>
<!-- Uploaded to: SVG Repo, www.svgrepo.com, Generator: SVG Repo Mixer Tools -->

<svg
   height="800px"
   width="800px"
   version="1.1"
   id="Layer_1"
   viewBox="0 0 508 508"
   xml:space="preserve"
   sodipodi:docname="MarketBoard.svg"
   inkscape:version="1.1.2 (0a00cf5339, 2022-02-04)"
   xmlns:inkscape="http://www.inkscape.org/namespaces/inkscape"
   xmlns:sodipodi="http://sodipodi.sourceforge.net/DTD/sodipodi-0.dtd"
   xmlns="http://www.w3.org/2000/svg"
   xmlns:svg="http://www.w3.org/2000/svg"><defs
   id="defs29" /><sodipodi:namedview
   id="namedview27"
   pagecolor="#ffffff"
   bordercolor="#666666"
   borderopacity="1.0"
   inkscape:pageshadow="2"
   inkscape:pageopacity="0.0"
   inkscape:pagecheckerboard="0"
   showgrid="false"
   inkscape:zoom="0.69625"
   inkscape:cx="389.22801"
   inkscape:cy="400"
   inkscape:window-width="1366"
   inkscape:window-height="699"
   inkscape:window-x="0"
   inkscape:window-y="37"
   inkscape:window-maximized="1"
   inkscape:current-layer="Layer_1" />
<circle
   style="fill:#cd87de"
   cx="254"
   cy="254"
   r="254"
   id="circle2"
   inkscape:export-filename="/home/r_xn/Desktop/Ledgr/pages/appdata/imgs/MarketBoard.png"
   inkscape:export-xdpi="96"
   inkscape:export-ydpi="96" />
<polygon
   style="fill:#324A5E;"
   points="389.6,205.2 378.8,200 310.4,344 148,181.6 247.6,122.4 241.6,112 135.2,175.2 138.4,180.4   134,184.4 300,350.4 167.2,376 169.6,387.6 313.2,360 312,354 317.6,356.8 "
   id="polygon4" />
<circle
   style="fill:#FFFFFF;"
   cx="138.4"
   cy="180.4"
   r="51.2"
   id="circle6" />
<circle
   style="fill:#84DBFF;"
   cx="138.4"
   cy="180.4"
   r="34.4"
   id="circle8" />
<circle
   style="fill:#FFFFFF;"
   cx="242"
   cy="118"
   r="36.8"
   id="circle10" />
<circle
   style="fill:#F1543F;"
   cx="242"
   cy="118"
   r="22.8"
   id="circle12" />
<circle
   style="fill:#FFFFFF;"
   cx="384.4"
   cy="202.4"
   r="36.8"
   id="circle14" />
<circle
   style="fill:#4CDBC4;"
   cx="384.4"
   cy="202.4"
   r="21.2"
   id="circle16" />
<circle
   style="fill:#FFFFFF;"
   cx="165.6"
   cy="383.2"
   r="36.8"
   id="circle18" />
<circle
   style="fill:#CED5E0;"
   cx="165.6"
   cy="383.2"
   r="24.4"
   id="circle20" />
<circle
   style="fill:#FFFFFF;"
   cx="312"
   cy="354"
   r="72.8"
   id="circle22" />
<circle
   style="fill:#FF7058;"
   cx="312"
   cy="354"
   r="48.4"
   id="circle24" />
</svg>
